<?xml version="1.0" encoding="UTF-8"?><svg id="Layer_2" xmlns="http://www.w3.org/2000/svg" viewBox="0 0 237.13 245.99"><defs><style>.cls-1{fill:#7510f7;}</style></defs><g id="Layer_1-2"><path class="cls-1" d="M52.8,233.48c-17.6-8.34-30.8-20.86-39.6-37.55C4.4,179.24,0,158.3,0,133.11c0-6.88,.05-3.95,.15-10.83,.2-27.31,4.73-50.01,13.58-68.12,8.85-18.1,22.02-31.66,39.52-40.66C70.75,4.5,92.7,0,119.1,0s47.61,4.53,65.16,13.58c17.55,9.05,30.75,22.66,39.6,40.81,8.85,18.16,13.28,40.79,13.28,67.89v16.9c0,17.5-3.9,30.4-11.68,38.69-7.79,8.29-19.12,12.44-33.99,12.44-16.79,0-29.33-3.94-37.63-11.83-8.29-7.89-12.44-19.82-12.44-35.81l34.59-.91c0,5.36,1.04,9.38,3.11,12.06,2.07,2.68,5.28,4.02,9.63,4.02,4.04,0,6.95-1.24,8.72-3.72,1.77-2.48,2.65-6.45,2.65-11.91v-19.93c0-19.52-3.06-35.83-9.18-48.93-6.12-13.1-15.2-22.93-27.23-29.51-12.04-6.57-26.91-9.86-44.6-9.86s-33.18,3.26-45.21,9.79c-12.04,6.52-21.11,16.31-27.23,29.36-6.12,13.05-9.28,29.43-9.48,49.16-.1,6.78-.15,3.85-.15,10.83,0,17.6,3.03,32.24,9.1,43.92,6.07,11.68,15.17,20.43,27.31,26.25,12.14,5.81,27.36,10.72,45.67,10.72h45.21v31.98h-45.21c-26.6,0-48.7-4.17-66.3-12.52Zm20.86-60.08c-5.93-8.01-9.75-18.92-11.47-32.72-.7-5.63-1.05-11.74-1.05-18.33v4.34c0-9.55,.84-18.09,2.52-25.62,2.33-10.41,6.27-18.89,11.81-25.44,9.56-11.28,23.94-16.92,43.16-16.92s33.58,5.64,43.09,16.92c5.62,6.66,9.58,15.35,11.87,26.05,1.59,7.41,2.39,15.8,2.39,25.15v18.57l-19.12,8.8c-2.02,12.04-6.8,21.06-14.34,27.08-7.54,6.02-17.93,9.03-31.18,9.03-16.79,0-29.36-5.64-37.7-16.92Zm57.88-28.6c2.83-4.65,4.25-11.73,4.25-21.24v1.46c0-9.3-1.42-16.26-4.25-20.86-2.83-4.6-7.13-6.9-12.9-6.9-11.73,0-17.6,9.31-17.6,27.92v-1.61c0,9.51,1.46,16.59,4.4,21.24,2.93,4.65,7.33,6.98,13.2,6.98s10.06-2.33,12.9-6.98Z"/></g></svg>