<svg width="106" height="96" viewBox="0 0 106 96" fill="none" xmlns="http://www.w3.org/2000/svg">
<path d="M6.39567 20.8789C9.01377 15.8392 22.7494 3.6167 33.8339 1.2417C38.8029 0.177 40.6241 2.924 40.8543 6.9236C63.276 9.5147 84.213 28.399 89.017 51.3099C90.316 57.5079 90.311 63.4099 89.19 68.7759L94.661 68.6889C92.041 75.8619 83.323 90.8689 62.799 95.1719C62.018 95.3359 61.239 95.4659 60.461 95.5629C58.503 95.8509 56.471 95.9999 54.375 95.9999C30.0683 95.9999 6.16957 75.9919 0.995374 51.3099C-1.46923 39.5537 0.759073 28.8575 6.39567 20.8789Z" fill="#9F163D"/>
<path d="M62.6079 88.5516C86.4743 88.5516 101.666 68.7287 96.5399 44.2758C91.4136 19.823 67.9104 0 44.044 0C20.1776 0 4.98578 19.823 10.1121 44.2758C15.2383 68.7287 38.7415 88.5516 62.6079 88.5516Z" fill="#EB323A"/>
<path d="M61.5317 76.9654C80.2764 76.9654 92.2095 61.4035 88.1852 42.2068C84.1608 23.0102 65.7029 7.44821 46.9582 7.44821C28.2136 7.44821 16.2804 23.0102 20.3048 42.2068C24.3291 61.4035 42.7871 76.9654 61.5317 76.9654Z" fill="white"/>
<path d="M60.388 66.2067C74.2622 66.2067 83.1523 54.9625 80.2445 41.0921C77.3367 27.2217 63.7322 15.9774 49.858 15.9774C35.9837 15.9774 27.0937 27.2217 30.0015 41.0921C32.9093 54.9625 46.5138 66.2067 60.388 66.2067Z" fill="#EB323A"/>
<path d="M59.9518 55.8063C68.8422 55.8063 74.5706 48.7526 72.7465 40.0513C70.9223 31.3501 62.2365 24.2963 53.3461 24.2963C44.4557 24.2963 38.7273 31.3501 40.5515 40.0513C42.3756 48.7526 51.0614 55.8063 59.9518 55.8063Z" fill="white"/>
<path d="M58.2801 47.8272C62.6678 47.8272 65.495 44.3459 64.5947 40.0515C63.6945 35.7571 59.4076 32.2758 55.0199 32.2758C50.6321 32.2758 47.805 35.7571 48.7052 40.0515C49.6055 44.3459 53.8923 47.8272 58.2801 47.8272Z" fill="#EB323A"/>
</svg>
