<?xml version="1.0" encoding="UTF-8"?><svg id="Layer_2" xmlns="http://www.w3.org/2000/svg" viewBox="0 0 507.85 160.71"><defs><style>.cls-1{letter-spacing:.18em;}.cls-2,.cls-3{fill:#7510f7;}.cls-3{font-family:MyriadPro-Regular, 'Myriad Pro';font-size:31.11px;}.cls-4{letter-spacing:.19em;}</style></defs><g id="Layer_1-2"><g><path class="cls-2" d="M137.54,43.71h19.51V117.61h-19.51V43.71Zm42.72,29.12c0-3.61-1.03-6.41-3.1-8.4s-5-2.99-8.79-2.99-6.4,1.01-8.37,3.03c-1.97,2.02-2.95,4.85-2.95,8.51l-1.5-16.37c2.23-4.65,4.9-8.14,8.01-10.47,3.11-2.32,7.01-3.49,11.71-3.49,7.78,0,13.81,2.62,18.08,7.87,4.27,5.25,6.41,12.66,6.41,22.25v44.85h-19.51v-44.78Z"/><path class="cls-2" d="M210.85,43.71h36.17v16.66h-36.17v-16.66Zm12.14,69.31c-3.01-3.3-4.52-8.18-4.52-14.63V22.21h19.51V93.55c0,1.8,.36,3.19,1.07,4.16,.71,.97,1.76,1.46,3.13,1.46h4.84v18.8h-9.82c-6.46,0-11.19-1.65-14.2-4.95Z"/><path class="cls-2" d="M272.71,114.91c-4.77-2.51-8.4-6.18-10.89-11-2.49-4.82-3.74-10.62-3.74-17.41v-12.03c0-6.69,1.25-12.42,3.74-17.19,2.49-4.77,6.12-8.4,10.89-10.89,4.77-2.49,10.52-3.74,17.26-3.74s12.49,1.25,17.26,3.74,8.4,6.12,10.89,10.89c2.49,4.77,3.74,10.5,3.74,17.19v12.25c0,6.74-1.25,12.49-3.74,17.26-2.49,4.77-6.12,8.41-10.89,10.93-4.77,2.52-10.53,3.77-17.26,3.77s-12.49-1.26-17.26-3.77Zm42.47-91.13l-10.96,9.97-14.24-13.53-14.24,13.53-10.96-9.97L289.97,0l25.2,23.78Zm-16.09,72.65c2.18-2.3,3.27-5.54,3.27-9.72v-12.25c0-4.13-1.09-7.33-3.27-9.61-2.18-2.28-5.25-3.42-9.18-3.42s-6.92,1.14-9.08,3.42c-2.16,2.28-3.24,5.48-3.24,9.61v12.25c0,4.18,1.07,7.42,3.2,9.72,2.14,2.3,5.17,3.45,9.11,3.45s7-1.15,9.18-3.45Z"/><path class="cls-2" d="M333.34,43.71h19.51V117.61h-19.51V43.71Zm42.72,29.12c0-3.61-1.03-6.41-3.1-8.4-2.06-1.99-5-2.99-8.79-2.99s-6.4,1.01-8.37,3.03c-1.97,2.02-2.96,4.85-2.96,8.51l-1.49-16.37c2.23-4.65,4.9-8.14,8.01-10.47,3.11-2.32,7.01-3.49,11.71-3.49,7.78,0,13.81,2.62,18.08,7.87,4.27,5.25,6.41,12.66,6.41,22.25v44.85h-19.51v-44.78Z"/><path class="cls-2" d="M406.9,14.1h19.51v19.51h-19.51V14.1Zm0,29.62h19.51V117.61h-19.51V43.71Z"/><path class="cls-2" d="M452.67,114.91c-4.77-2.51-8.4-6.18-10.89-11-2.49-4.82-3.74-10.62-3.74-17.41v-12.03c0-6.69,1.25-12.42,3.74-17.19,2.49-4.77,6.12-8.4,10.89-10.89s10.52-3.74,17.26-3.74,12.49,1.25,17.26,3.74,8.4,6.12,10.89,10.89c2.49,4.77,3.74,10.5,3.74,17.19v12.25c0,6.74-1.25,12.49-3.74,17.26-2.49,4.77-6.12,8.41-10.89,10.93-4.77,2.52-10.53,3.77-17.26,3.77s-12.49-1.26-17.26-3.77Zm26.38-18.47c2.18-2.3,3.27-5.54,3.27-9.72v-12.25c0-4.13-1.09-7.33-3.27-9.61-2.18-2.28-5.25-3.42-9.18-3.42s-6.92,1.14-9.08,3.42c-2.16,2.28-3.24,5.48-3.24,9.61v12.25c0,4.18,1.07,7.42,3.2,9.72,2.14,2.3,5.17,3.45,9.11,3.45s7-1.15,9.18-3.45Z"/></g><text class="cls-3" transform="translate(137.46 152.94)"><tspan class="cls-4" x="0" y="0">full stack de</tspan><tspan class="cls-1" x="230.65" y="0">v</tspan><tspan class="cls-4" x="251.25" y="0">eloper</tspan></text><path class="cls-2" d="M27.34,146.23c-9.11-4.32-15.95-10.8-20.51-19.45C2.28,118.14,0,107.3,0,94.26c0-3.56,.03-5.66,.08-9.22,.1-14.14,2.45-25.9,7.03-35.28,4.58-9.38,11.4-16.39,20.47-21.06,9.06-4.66,20.43-6.99,34.1-6.99s24.66,2.34,33.74,7.03c9.09,4.69,15.92,11.73,20.51,21.13,4.58,9.4,6.87,21.12,6.87,35.16v12.36c0,9.06-2.02,15.74-6.05,20.03-4.03,4.3-9.9,6.44-17.6,6.44-8.7,0-15.19-2.04-19.48-6.13-4.3-4.09-6.44-10.26-6.44-18.54l17.91-.47c0,2.78,.54,4.86,1.61,6.25,1.07,1.39,2.74,2.08,4.99,2.08,2.09,0,3.6-.64,4.52-1.92,.92-1.28,1.38-3.34,1.38-6.17v-13.94c0-10.11-1.59-18.55-4.75-25.34-3.17-6.78-7.87-11.88-14.1-15.28-6.23-3.4-13.93-5.11-23.1-5.11s-17.18,1.69-23.41,5.07c-6.23,3.38-10.93,8.45-14.1,15.2-3.17,6.76-4.81,15.24-4.91,25.46-.05,3.51-.08,5.61-.08,9.22,0,9.11,1.57,16.7,4.71,22.74,3.14,6.05,7.86,10.58,14.14,13.59,6.29,3.01,14.17,4.52,23.65,4.52h42.18v17.6H61.68c-13.78,0-25.22-2.16-34.33-6.48Zm10.8-31.11c-4.32-5.84-6.48-14.65-6.48-26.44v-1.36c0-11.79,2.48-20.6,7.42-26.44,4.95-5.84,12.4-8.76,22.35-8.76s17.39,2.92,22.31,8.76c4.92,5.84,7.38,14.68,7.38,26.52v13.23l-9.9,4.56c-1.05,6.23-3.52,10.91-7.42,14.02-3.9,3.12-9.28,4.67-16.15,4.67-8.7,0-15.2-2.92-19.52-8.76Zm29.97-14.81c1.47-2.41,2.2-6.08,2.2-11v-2.86c0-4.82-.73-8.42-2.2-10.8-1.47-2.38-3.69-3.57-6.68-3.57-6.08,0-9.11,4.82-9.11,14.46v2.78c0,4.92,.76,8.59,2.28,11,1.52,2.41,3.8,3.61,6.83,3.61s5.21-1.2,6.68-3.61Z"/></g></svg>